<svg data-v-423bf9ae="" xmlns="http://www.w3.org/2000/svg" viewBox="0 0 1115 90" class="iconLeft"><!----><!----><!----><g data-v-423bf9ae="" id="cf89df26-29ae-4615-a71f-354c6bec12e1" fill="white" transform="matrix(4.158004070067766,0,0,4.158004070067766,219.97135759834237,9.760916580298485)"><path d="M5.47 1.40Q6.41 1.40 7.14 1.77Q7.87 2.14 8.28 2.81Q8.69 3.47 8.69 4.31L8.69 4.31Q8.69 5.00 8.32 5.54Q7.95 6.09 7.31 6.43L7.31 6.43Q8.26 6.65 8.81 7.32Q9.35 7.99 9.35 9.03L9.35 9.03Q9.35 9.98 8.90 10.74Q8.44 11.49 7.62 11.91Q6.80 12.33 5.77 12.33L5.77 12.33L2.13 12.33Q1.82 12.33 1.61 12.12Q1.40 11.91 1.40 11.61L1.40 11.61L1.40 2.13Q1.40 1.81 1.61 1.60Q1.82 1.40 2.13 1.40L2.13 1.40L5.47 1.40ZM5.47 5.89Q6.30 5.89 6.80 5.49Q7.29 5.08 7.29 4.31L7.29 4.31Q7.29 3.54 6.80 3.14Q6.30 2.74 5.47 2.74L5.47 2.74L2.86 2.74L2.86 5.89L5.47 5.89ZM5.77 10.99Q6.75 10.99 7.35 10.48Q7.95 9.97 7.95 9.03L7.95 9.03Q7.95 8.16 7.36 7.70Q6.76 7.24 5.77 7.24L5.77 7.24L2.86 7.24L2.86 10.99L5.77 10.99ZM14.85 4.62Q15.96 4.62 16.84 5.12Q17.71 5.61 18.21 6.50Q18.70 7.38 18.70 8.51L18.70 8.51Q18.70 9.63 18.21 10.51Q17.72 11.40 16.85 11.89Q15.97 12.39 14.85 12.39L14.85 12.39Q13.73 12.39 12.85 11.89Q11.97 11.40 11.48 10.51Q10.99 9.63 10.99 8.51L10.99 8.51Q10.99 7.38 11.48 6.50Q11.97 5.61 12.85 5.12Q13.73 4.62 14.85 4.62L14.85 4.62ZM14.85 5.88Q14.14 5.88 13.57 6.22Q13.01 6.55 12.68 7.15Q12.36 7.76 12.36 8.51L12.36 8.51Q12.36 9.27 12.68 9.86Q13.01 10.46 13.57 10.79Q14.14 11.13 14.85 11.13L14.85 11.13Q15.57 11.13 16.13 10.79Q16.70 10.46 17.02 9.86Q17.33 9.27 17.33 8.51L17.33 8.51Q17.33 7.76 17.02 7.15Q16.70 6.55 16.13 6.22Q15.57 5.88 14.85 5.88L14.85 5.88ZM27.15 4.66Q27.47 4.66 27.66 4.86Q27.86 5.05 27.86 5.38L27.86 5.38L27.86 11.62Q27.86 11.93 27.66 12.13Q27.47 12.33 27.15 12.33L27.15 12.33Q26.84 12.33 26.64 12.13Q26.43 11.93 26.43 11.62L26.43 11.62L26.43 11.47Q25.98 11.91 25.37 12.16Q24.75 12.40 24.05 12.40L24.05 12.40Q23.09 12.40 22.32 11.98Q21.55 11.56 21.11 10.76Q20.68 9.95 20.68 8.82L20.68 8.82L20.68 5.38Q20.68 5.07 20.88 4.86Q21.08 4.66 21.39 4.66L21.39 4.66Q21.70 4.66 21.90 4.86Q22.11 5.07 22.11 5.38L22.11 5.38L22.11 8.82Q22.11 9.95 22.72 10.54Q23.32 11.12 24.33 11.12L24.33 11.12Q24.92 11.12 25.40 10.88Q25.89 10.64 26.16 10.23Q26.43 9.83 26.43 9.32L26.43 9.32L26.43 5.38Q26.43 5.05 26.64 4.86Q26.84 4.66 27.15 4.66L27.15 4.66ZM34.19 4.61Q35.15 4.61 35.92 5.03Q36.69 5.45 37.13 6.25Q37.56 7.06 37.56 8.19L37.56 8.19L37.56 11.63Q37.56 11.94 37.36 12.14Q37.16 12.35 36.85 12.35L36.85 12.35Q36.54 12.35 36.34 12.14Q36.13 11.94 36.13 11.63L36.13 11.63L36.13 8.19Q36.13 7.06 35.53 6.47Q34.92 5.89 33.91 5.89L33.91 5.89Q33.32 5.89 32.84 6.13Q32.35 6.37 32.08 6.78Q31.81 7.18 31.81 7.69L31.81 7.69L31.81 11.63Q31.81 11.94 31.61 12.14Q31.42 12.35 31.09 12.35L31.09 12.35Q30.79 12.35 30.58 12.14Q30.38 11.94 30.38 11.63L30.38 11.63L30.38 5.39Q30.38 5.07 30.58 4.87Q30.79 4.68 31.09 4.68L31.09 4.68Q31.42 4.68 31.61 4.87Q31.81 5.07 31.81 5.39L31.81 5.39L31.81 5.54Q32.26 5.10 32.87 4.85Q33.49 4.61 34.19 4.61L34.19 4.61ZM46.54 1.40Q46.86 1.40 47.05 1.60Q47.25 1.79 47.25 2.11L47.25 2.11L47.25 8.50Q47.25 9.59 46.74 10.48Q46.23 11.37 45.35 11.88Q44.48 12.39 43.40 12.39L43.40 12.39Q42.32 12.39 41.43 11.88Q40.54 11.37 40.04 10.48Q39.54 9.59 39.54 8.50L39.54 8.50Q39.54 7.41 40.01 6.52Q40.47 5.63 41.29 5.12Q42.11 4.62 43.12 4.62L43.12 4.62Q43.93 4.62 44.63 4.96Q45.33 5.29 45.82 5.89L45.82 5.89L45.82 2.11Q45.82 1.79 46.03 1.60Q46.23 1.40 46.54 1.40L46.54 1.40ZM43.40 11.13Q44.10 11.13 44.67 10.79Q45.23 10.44 45.56 9.84Q45.88 9.24 45.88 8.50L45.88 8.50Q45.88 7.76 45.56 7.16Q45.23 6.57 44.67 6.22Q44.10 5.88 43.40 5.88L43.40 5.88Q42.70 5.88 42.13 6.22Q41.57 6.57 41.24 7.16Q40.91 7.76 40.91 8.50L40.91 8.50Q40.91 9.24 41.24 9.84Q41.57 10.44 42.13 10.79Q42.70 11.13 43.40 11.13L43.40 11.13ZM49.49 2.10Q49.49 1.79 49.69 1.60Q49.88 1.40 50.19 1.40L50.19 1.40Q50.50 1.40 50.69 1.60Q50.89 1.79 50.89 2.10L50.89 2.10L50.89 9.74Q50.89 10.26 51.09 10.60Q51.28 10.93 51.59 10.93L51.59 10.93L51.94 10.93Q52.22 10.93 52.40 11.13Q52.57 11.33 52.57 11.63L52.57 11.63Q52.57 11.94 52.30 12.14Q52.04 12.33 51.62 12.33L51.62 12.33L51.59 12.33Q50.99 12.33 50.51 12.00Q50.02 11.68 49.76 11.08Q49.49 10.49 49.49 9.74L49.49 9.74L49.49 2.10ZM60.42 8.39Q60.42 8.65 60.24 8.83Q60.06 9.00 59.78 9.00L59.78 9.00L54.46 9.00Q54.61 9.98 55.35 10.58Q56.08 11.19 57.15 11.19L57.15 11.19Q57.57 11.19 58.02 11.03Q58.48 10.88 58.77 10.65L58.77 10.65Q58.97 10.50 59.23 10.50L59.23 10.50Q59.50 10.50 59.65 10.64L59.65 10.64Q59.91 10.85 59.91 11.12L59.91 11.12Q59.91 11.37 59.68 11.54L59.68 11.54Q59.21 11.91 58.50 12.15Q57.79 12.39 57.15 12.39L57.15 12.39Q56.00 12.39 55.09 11.89Q54.18 11.40 53.67 10.51Q53.16 9.63 53.16 8.51L53.16 8.51Q53.16 7.39 53.64 6.50Q54.12 5.61 54.99 5.12Q55.85 4.62 56.94 4.62L56.94 4.62Q58.02 4.62 58.80 5.10Q59.58 5.57 60.00 6.43Q60.42 7.28 60.42 8.39L60.42 8.39ZM56.94 5.82Q55.92 5.82 55.28 6.38Q54.64 6.94 54.47 7.88L54.47 7.88L59.14 7.88Q59.01 6.94 58.44 6.38Q57.86 5.82 56.94 5.82L56.94 5.82ZM64.93 4.62Q65.84 4.62 66.56 4.91Q67.28 5.21 67.70 5.73L67.70 5.73Q67.89 5.95 67.89 6.17L67.89 6.17Q67.89 6.41 67.65 6.61L67.65 6.61Q67.49 6.72 67.26 6.72L67.26 6.72Q66.89 6.72 66.60 6.45L66.60 6.45Q66.25 6.13 65.86 6.00Q65.46 5.87 64.90 5.87L64.90 5.87Q64.26 5.87 63.85 6.08Q63.43 6.30 63.43 6.69L63.43 6.69Q63.43 6.97 63.57 7.16Q63.71 7.35 64.11 7.51Q64.50 7.67 65.24 7.83L65.24 7.83Q66.77 8.13 67.40 8.68Q68.04 9.23 68.04 10.09L68.04 10.09Q68.04 10.74 67.69 11.26Q67.34 11.79 66.66 12.09Q65.98 12.39 65.03 12.39L65.03 12.39Q64.08 12.39 63.24 12.10Q62.40 11.80 61.92 11.33L61.92 11.33Q61.74 11.14 61.74 10.89L61.74 10.89Q61.74 10.56 62.02 10.35L62.02 10.35Q62.29 10.15 62.51 10.15L62.51 10.15Q62.79 10.15 63.04 10.40L63.04 10.40Q63.31 10.70 63.84 10.91Q64.37 11.13 64.97 11.13L64.97 11.13Q65.77 11.13 66.21 10.86Q66.65 10.60 66.65 10.15L66.65 10.15Q66.65 9.72 66.22 9.43Q65.79 9.14 64.75 8.95L64.75 8.95Q62.06 8.43 62.06 6.73L62.06 6.73Q62.06 6.05 62.47 5.57Q62.87 5.10 63.53 4.86Q64.19 4.62 64.93 4.62L64.93 4.62ZM72.53 4.62Q73.44 4.62 74.17 4.91Q74.89 5.21 75.31 5.73L75.31 5.73Q75.49 5.95 75.49 6.17L75.49 6.17Q75.49 6.41 75.25 6.61L75.25 6.61Q75.10 6.72 74.86 6.72L74.86 6.72Q74.49 6.72 74.20 6.45L74.20 6.45Q73.85 6.13 73.46 6.00Q73.07 5.87 72.51 5.87L72.51 5.87Q71.86 5.87 71.45 6.08Q71.04 6.30 71.04 6.69L71.04 6.69Q71.04 6.97 71.18 7.16Q71.32 7.35 71.71 7.51Q72.10 7.67 72.84 7.83L72.84 7.83Q74.37 8.13 75.01 8.68Q75.64 9.23 75.64 10.09L75.64 10.09Q75.64 10.74 75.29 11.26Q74.94 11.79 74.26 12.09Q73.58 12.39 72.63 12.39L72.63 12.39Q71.68 12.39 70.84 12.10Q70.00 11.80 69.52 11.33L69.52 11.33Q69.34 11.14 69.34 10.89L69.34 10.89Q69.34 10.56 69.62 10.35L69.62 10.35Q69.89 10.15 70.11 10.15L70.11 10.15Q70.39 10.15 70.64 10.40L70.64 10.40Q70.91 10.70 71.44 10.91Q71.97 11.13 72.58 11.13L72.58 11.13Q73.37 11.13 73.82 10.86Q74.26 10.60 74.26 10.15L74.26 10.15Q74.26 9.72 73.82 9.43Q73.39 9.14 72.35 8.95L72.35 8.95Q69.66 8.43 69.66 6.73L69.66 6.73Q69.66 6.05 70.07 5.57Q70.48 5.10 71.13 4.86Q71.79 4.62 72.53 4.62L72.53 4.62ZM88.66 1.40Q88.96 1.40 89.15 1.59Q89.33 1.78 89.33 2.07L89.33 2.07Q89.33 2.37 89.15 2.55Q88.96 2.74 88.66 2.74L88.66 2.74L85.65 2.74L85.65 11.61Q85.65 11.91 85.44 12.12Q85.23 12.33 84.92 12.33L84.92 12.33Q84.62 12.33 84.41 12.12Q84.20 11.91 84.20 11.61L84.20 11.61L84.20 2.74L81.17 2.74Q80.88 2.74 80.69 2.55Q80.50 2.37 80.50 2.07L80.50 2.07Q80.50 1.78 80.69 1.59Q80.88 1.40 81.17 1.40L81.17 1.40L88.66 1.40ZM92.60 4.59Q93.34 4.59 93.76 4.82Q94.18 5.04 94.18 5.38L94.18 5.38Q94.18 5.47 94.16 5.52L94.16 5.52Q94.04 5.96 93.60 5.96L93.60 5.96Q93.53 5.96 93.39 5.94L93.39 5.94Q92.83 5.84 92.48 5.84L92.48 5.84Q91.48 5.84 90.86 6.30Q90.24 6.76 90.24 7.55L90.24 7.55L90.24 11.63Q90.24 11.97 90.07 12.15Q89.89 12.33 89.54 12.33L89.54 12.33Q89.21 12.33 89.03 12.16Q88.84 11.98 88.84 11.63L88.84 11.63L88.84 5.38Q88.84 5.04 89.03 4.86Q89.21 4.68 89.54 4.68L89.54 4.68Q90.24 4.68 90.24 5.38L90.24 5.38L90.24 5.64Q90.66 5.15 91.28 4.87Q91.90 4.59 92.60 4.59L92.60 4.59ZM98.56 4.62Q99.64 4.62 100.51 5.13Q101.39 5.64 101.90 6.53Q102.41 7.42 102.41 8.51L102.41 8.51L102.41 11.63Q102.41 11.94 102.21 12.14Q102.00 12.35 101.70 12.35L101.70 12.35Q101.39 12.35 101.19 12.14Q100.98 11.94 100.98 11.63L100.98 11.63L100.98 11.12Q100.49 11.72 99.79 12.05Q99.09 12.39 98.28 12.39L98.28 12.39Q97.27 12.39 96.45 11.89Q95.63 11.38 95.17 10.49Q94.70 9.60 94.70 8.51L94.70 8.51Q94.70 7.42 95.20 6.53Q95.70 5.64 96.59 5.13Q97.48 4.62 98.56 4.62L98.56 4.62ZM98.56 11.13Q99.26 11.13 99.83 10.79Q100.39 10.44 100.72 9.85Q101.04 9.25 101.04 8.51L101.04 8.51Q101.04 7.77 100.72 7.17Q100.39 6.57 99.83 6.22Q99.26 5.88 98.56 5.88L98.56 5.88Q97.86 5.88 97.29 6.22Q96.73 6.57 96.40 7.17Q96.07 7.77 96.07 8.51L96.07 8.51Q96.07 9.25 96.40 9.85Q96.73 10.44 97.29 10.79Q97.86 11.13 98.56 11.13L98.56 11.13ZM108.35 4.61Q109.31 4.61 110.08 5.03Q110.85 5.45 111.29 6.25Q111.72 7.06 111.72 8.19L111.72 8.19L111.72 11.63Q111.72 11.94 111.52 12.14Q111.31 12.35 111.01 12.35L111.01 12.35Q110.70 12.35 110.50 12.14Q110.29 11.94 110.29 11.63L110.29 11.63L110.29 8.19Q110.29 7.06 109.68 6.47Q109.07 5.89 108.07 5.89L108.07 5.89Q107.48 5.89 107.00 6.13Q106.51 6.37 106.24 6.78Q105.97 7.18 105.97 7.69L105.97 7.69L105.97 11.63Q105.97 11.94 105.77 12.14Q105.57 12.35 105.25 12.35L105.25 12.35Q104.94 12.35 104.74 12.14Q104.54 11.94 104.54 11.63L104.54 11.63L104.54 5.39Q104.54 5.07 104.74 4.87Q104.94 4.68 105.25 4.68L105.25 4.68Q105.57 4.68 105.77 4.87Q105.97 5.07 105.97 5.39L105.97 5.39L105.97 5.54Q106.41 5.10 107.03 4.85Q107.65 4.61 108.35 4.61L108.35 4.61ZM117.56 4.62Q118.64 4.62 119.51 5.13Q120.39 5.64 120.90 6.53Q121.41 7.42 121.41 8.51L121.41 8.51L121.41 14.90Q121.41 15.22 121.21 15.41Q121.02 15.61 120.69 15.61L120.69 15.61Q120.39 15.61 120.18 15.41Q119.98 15.22 119.98 14.90L119.98 14.90L119.98 11.12Q119.49 11.72 118.79 12.05Q118.09 12.39 117.28 12.39L117.28 12.39Q116.27 12.39 115.45 11.89Q114.63 11.38 114.16 10.49Q113.69 9.60 113.69 8.51L113.69 8.51Q113.69 7.42 114.20 6.53Q114.70 5.64 115.59 5.13Q116.48 4.62 117.56 4.62L117.56 4.62ZM117.56 11.13Q118.26 11.13 118.83 10.79Q119.39 10.44 119.71 9.85Q120.04 9.25 120.04 8.51L120.04 8.51Q120.04 7.77 119.71 7.17Q119.39 6.57 118.83 6.22Q118.26 5.88 117.56 5.88L117.56 5.88Q116.86 5.88 116.29 6.22Q115.72 6.57 115.40 7.17Q115.07 7.77 115.07 8.51L115.07 8.51Q115.07 9.25 115.40 9.85Q115.72 10.44 116.29 10.79Q116.86 11.13 117.56 11.13L117.56 11.13ZM130.24 4.66Q130.56 4.66 130.76 4.86Q130.96 5.05 130.96 5.38L130.96 5.38L130.96 11.62Q130.96 11.93 130.76 12.13Q130.56 12.33 130.24 12.33L130.24 12.33Q129.93 12.33 129.73 12.13Q129.53 11.93 129.53 11.62L129.53 11.62L129.53 11.47Q129.08 11.91 128.46 12.16Q127.85 12.40 127.15 12.40L127.15 12.40Q126.18 12.40 125.41 11.98Q124.64 11.56 124.21 10.76Q123.77 9.95 123.77 8.82L123.77 8.82L123.77 5.38Q123.77 5.07 123.98 4.86Q124.18 4.66 124.49 4.66L124.49 4.66Q124.80 4.66 125.00 4.86Q125.20 5.07 125.20 5.38L125.20 5.38L125.20 8.82Q125.20 9.95 125.81 10.54Q126.42 11.12 127.43 11.12L127.43 11.12Q128.02 11.12 128.50 10.88Q128.98 10.64 129.26 10.23Q129.53 9.83 129.53 9.32L129.53 9.32L129.53 5.38Q129.53 5.05 129.73 4.86Q129.93 4.66 130.24 4.66L130.24 4.66ZM133.62 5.39Q133.62 5.07 133.82 4.87Q134.02 4.68 134.33 4.68L134.33 4.68Q134.65 4.68 134.85 4.87Q135.04 5.07 135.04 5.39L135.04 5.39L135.04 11.62Q135.04 11.93 134.85 12.13Q134.65 12.33 134.33 12.33L134.33 12.33Q134.02 12.33 133.82 12.13Q133.62 11.93 133.62 11.62L133.62 11.62L133.62 5.39ZM134.33 1.58Q134.71 1.58 134.98 1.85Q135.25 2.13 135.25 2.51L135.25 2.51Q135.25 2.88 134.98 3.16Q134.71 3.43 134.33 3.43L134.33 3.43Q133.95 3.43 133.68 3.16Q133.41 2.88 133.41 2.51L133.41 2.51Q133.41 2.13 133.68 1.85Q133.95 1.58 134.33 1.58L134.33 1.58ZM137.42 2.10Q137.42 1.79 137.62 1.60Q137.82 1.40 138.12 1.40L138.12 1.40Q138.43 1.40 138.63 1.60Q138.82 1.79 138.82 2.10L138.82 2.10L138.82 9.74Q138.82 10.26 139.02 10.60Q139.22 10.93 139.52 10.93L139.52 10.93L139.87 10.93Q140.15 10.93 140.33 11.13Q140.50 11.33 140.50 11.63L140.50 11.63Q140.50 11.94 140.24 12.14Q139.97 12.33 139.55 12.33L139.55 12.33L139.52 12.33Q138.92 12.33 138.44 12.00Q137.96 11.68 137.69 11.08Q137.42 10.49 137.42 9.74L137.42 9.74L137.42 2.10ZM142.04 5.39Q142.04 5.07 142.25 4.87Q142.45 4.68 142.76 4.68L142.76 4.68Q143.08 4.68 143.28 4.87Q143.47 5.07 143.47 5.39L143.47 5.39L143.47 11.62Q143.47 11.93 143.28 12.13Q143.08 12.33 142.76 12.33L142.76 12.33Q142.45 12.33 142.25 12.13Q142.04 11.93 142.04 11.62L142.04 11.62L142.04 5.39ZM142.76 1.58Q143.14 1.58 143.41 1.85Q143.68 2.13 143.68 2.51L143.68 2.51Q143.68 2.88 143.41 3.16Q143.14 3.43 142.76 3.43L142.76 3.43Q142.38 3.43 142.11 3.16Q141.83 2.88 141.83 2.51L141.83 2.51Q141.83 2.13 142.11 1.85Q142.38 1.58 142.76 1.58L142.76 1.58ZM149.39 10.93Q149.65 10.93 149.82 11.13Q150.00 11.33 150.00 11.63L150.00 11.63Q150.00 11.94 149.77 12.14Q149.53 12.33 149.17 12.33L149.17 12.33L148.92 12.33Q148.23 12.33 147.67 11.98Q147.10 11.62 146.78 11.00Q146.45 10.39 146.45 9.62L146.45 9.62L146.45 6.16L145.81 6.16Q145.52 6.16 145.33 5.99Q145.15 5.82 145.15 5.57L145.15 5.57Q145.15 5.29 145.33 5.12Q145.52 4.96 145.81 4.96L145.81 4.96L146.45 4.96L146.45 2.94Q146.45 2.63 146.65 2.44Q146.85 2.24 147.15 2.24L147.15 2.24Q147.46 2.24 147.66 2.44Q147.85 2.63 147.85 2.94L147.85 2.94L147.85 4.96L149.04 4.96Q149.34 4.96 149.52 5.12Q149.70 5.29 149.70 5.57L149.70 5.57Q149.70 5.82 149.52 5.99Q149.34 6.16 149.04 6.16L149.04 6.16L147.85 6.16L147.85 9.62Q147.85 10.18 148.16 10.56Q148.47 10.93 148.92 10.93L148.92 10.93L149.39 10.93ZM157.60 4.75Q158.03 4.91 158.03 5.29L158.03 5.29Q158.03 5.43 157.95 5.63L157.95 5.63L153.66 15.26Q153.50 15.69 153.12 15.69L153.12 15.69Q152.98 15.69 152.78 15.61L152.78 15.61Q152.36 15.43 152.36 15.06L152.36 15.06Q152.36 14.90 152.45 14.73L152.45 14.73L153.85 11.58L150.70 5.60Q150.63 5.47 150.63 5.31L150.63 5.31Q150.63 5.12 150.74 4.97Q150.85 4.82 151.03 4.73L151.03 4.73Q151.16 4.68 151.31 4.68L151.31 4.68Q151.70 4.68 151.90 5.07L151.90 5.07L154.46 10.16L156.72 5.08Q156.90 4.68 157.26 4.68L157.26 4.68Q157.44 4.68 157.60 4.75L157.60 4.75ZM168.43 1.26Q169.50 1.26 170.28 1.54Q171.05 1.82 171.85 2.46L171.85 2.46Q172.02 2.59 172.07 2.72Q172.13 2.86 172.13 3.04L172.13 3.04Q172.13 3.32 171.93 3.50Q171.72 3.68 171.46 3.68L171.46 3.68Q171.19 3.68 170.97 3.50L170.97 3.50Q170.39 3.01 169.85 2.79Q169.30 2.58 168.43 2.58L168.43 2.58Q167.34 2.58 166.43 3.15Q165.51 3.72 164.97 4.71Q164.43 5.70 164.43 6.86L164.43 6.86Q164.43 8.04 164.97 9.02Q165.51 10.00 166.43 10.57Q167.34 11.14 168.43 11.14L168.43 11.14Q169.78 11.14 171.01 10.22L171.01 10.22Q171.25 10.05 171.47 10.05L171.47 10.05Q171.74 10.05 171.91 10.24Q172.09 10.43 172.09 10.74L172.09 10.74Q172.09 11.03 171.86 11.26L171.86 11.26Q170.35 12.47 168.43 12.47L168.43 12.47Q166.94 12.47 165.70 11.73Q164.46 10.99 163.74 9.70Q163.03 8.41 163.03 6.86L163.03 6.86Q163.03 5.32 163.74 4.04Q164.46 2.76 165.70 2.01Q166.94 1.26 168.43 1.26L168.43 1.26ZM177.18 4.62Q178.26 4.62 179.14 5.13Q180.01 5.64 180.52 6.53Q181.03 7.42 181.03 8.51L181.03 8.51L181.03 11.63Q181.03 11.94 180.83 12.14Q180.63 12.35 180.32 12.35L180.32 12.35Q180.01 12.35 179.81 12.14Q179.61 11.94 179.61 11.63L179.61 11.63L179.61 11.12Q179.12 11.72 178.42 12.05Q177.72 12.39 176.90 12.39L176.90 12.39Q175.90 12.39 175.08 11.89Q174.26 11.38 173.79 10.49Q173.32 9.60 173.32 8.51L173.32 8.51Q173.32 7.42 173.82 6.53Q174.33 5.64 175.22 5.13Q176.11 4.62 177.18 4.62L177.18 4.62ZM177.18 11.13Q177.88 11.13 178.45 10.79Q179.02 10.44 179.34 9.85Q179.66 9.25 179.66 8.51L179.66 8.51Q179.66 7.77 179.34 7.17Q179.02 6.57 178.45 6.22Q177.88 5.88 177.18 5.88L177.18 5.88Q176.48 5.88 175.92 6.22Q175.35 6.57 175.02 7.17Q174.69 7.77 174.69 8.51L174.69 8.51Q174.69 9.25 175.02 9.85Q175.35 10.44 175.92 10.79Q176.48 11.13 177.18 11.13L177.18 11.13ZM187.01 4.62Q188.09 4.62 188.98 5.13Q189.87 5.64 190.37 6.53Q190.88 7.42 190.88 8.51L190.88 8.51Q190.88 9.60 190.41 10.49Q189.94 11.38 189.12 11.89Q188.30 12.39 187.29 12.39L187.29 12.39Q186.48 12.39 185.78 12.05Q185.08 11.72 184.59 11.12L184.59 11.12L184.59 14.90Q184.59 15.22 184.39 15.41Q184.20 15.61 183.88 15.61L183.88 15.61Q183.57 15.61 183.37 15.41Q183.16 15.22 183.16 14.90L183.16 14.90L183.16 8.51Q183.16 7.42 183.67 6.53Q184.18 5.64 185.06 5.13Q185.93 4.62 187.01 4.62L187.01 4.62ZM187.01 11.13Q187.71 11.13 188.28 10.79Q188.85 10.44 189.18 9.85Q189.50 9.25 189.50 8.51L189.50 8.51Q189.50 7.77 189.18 7.17Q188.85 6.57 188.28 6.22Q187.71 5.88 187.01 5.88L187.01 5.88Q186.31 5.88 185.75 6.22Q185.18 6.57 184.86 7.17Q184.53 7.77 184.53 8.51L184.53 8.51Q184.53 9.25 184.86 9.85Q185.18 10.44 185.75 10.79Q186.31 11.13 187.01 11.13L187.01 11.13ZM193.14 5.39Q193.14 5.07 193.35 4.87Q193.55 4.68 193.86 4.68L193.86 4.68Q194.18 4.68 194.38 4.87Q194.57 5.07 194.57 5.39L194.57 5.39L194.57 11.62Q194.57 11.93 194.38 12.13Q194.18 12.33 193.86 12.33L193.86 12.33Q193.55 12.33 193.35 12.13Q193.14 11.93 193.14 11.62L193.14 11.62L193.14 5.39ZM193.86 1.58Q194.24 1.58 194.51 1.85Q194.78 2.13 194.78 2.51L194.78 2.51Q194.78 2.88 194.51 3.16Q194.24 3.43 193.86 3.43L193.86 3.43Q193.48 3.43 193.21 3.16Q192.93 2.88 192.93 2.51L192.93 2.51Q192.93 2.13 193.21 1.85Q193.48 1.58 193.86 1.58L193.86 1.58ZM200.49 10.93Q200.75 10.93 200.92 11.13Q201.10 11.33 201.10 11.63L201.10 11.63Q201.10 11.94 200.87 12.14Q200.63 12.33 200.27 12.33L200.27 12.33L200.02 12.33Q199.33 12.33 198.77 11.98Q198.20 11.62 197.88 11.00Q197.55 10.39 197.55 9.62L197.55 9.62L197.55 6.16L196.91 6.16Q196.62 6.16 196.43 5.99Q196.25 5.82 196.25 5.57L196.25 5.57Q196.25 5.29 196.43 5.12Q196.62 4.96 196.91 4.96L196.91 4.96L197.55 4.96L197.55 2.94Q197.55 2.63 197.75 2.44Q197.95 2.24 198.25 2.24L198.25 2.24Q198.56 2.24 198.76 2.44Q198.95 2.63 198.95 2.94L198.95 2.94L198.95 4.96L200.14 4.96Q200.44 4.96 200.62 5.12Q200.80 5.29 200.80 5.57L200.80 5.57Q200.80 5.82 200.62 5.99Q200.44 6.16 200.14 6.16L200.14 6.16L198.95 6.16L198.95 9.62Q198.95 10.18 199.26 10.56Q199.57 10.93 200.02 10.93L200.02 10.93L200.49 10.93ZM206.32 4.62Q207.40 4.62 208.27 5.13Q209.15 5.64 209.66 6.53Q210.17 7.42 210.17 8.51L210.17 8.51L210.17 11.63Q210.17 11.94 209.97 12.14Q209.76 12.35 209.45 12.35L209.45 12.35Q209.15 12.35 208.94 12.14Q208.74 11.94 208.74 11.63L208.74 11.63L208.74 11.12Q208.25 11.72 207.55 12.05Q206.85 12.39 206.04 12.39L206.04 12.39Q205.03 12.39 204.21 11.89Q203.39 11.38 202.92 10.49Q202.45 9.60 202.45 8.51L202.45 8.51Q202.45 7.42 202.96 6.53Q203.46 5.64 204.35 5.13Q205.24 4.62 206.32 4.62L206.32 4.62ZM206.32 11.13Q207.02 11.13 207.59 10.79Q208.15 10.44 208.47 9.85Q208.80 9.25 208.80 8.51L208.80 8.51Q208.80 7.77 208.47 7.17Q208.15 6.57 207.59 6.22Q207.02 5.88 206.32 5.88L206.32 5.88Q205.62 5.88 205.05 6.22Q204.48 6.57 204.16 7.17Q203.83 7.77 203.83 8.51L203.83 8.51Q203.83 9.25 204.16 9.85Q204.48 10.44 205.05 10.79Q205.62 11.13 206.32 11.13L206.32 11.13ZM212.02 2.10Q212.02 1.79 212.21 1.60Q212.41 1.40 212.72 1.40L212.72 1.40Q213.02 1.40 213.22 1.60Q213.42 1.79 213.42 2.10L213.42 2.10L213.42 9.74Q213.42 10.26 213.61 10.60Q213.81 10.93 214.12 10.93L214.12 10.93L214.47 10.93Q214.75 10.93 214.92 11.13Q215.10 11.33 215.10 11.63L215.10 11.63Q215.10 11.94 214.83 12.14Q214.56 12.33 214.14 12.33L214.14 12.33L214.12 12.33Q213.51 12.33 213.03 12.00Q212.55 11.68 212.28 11.08Q212.02 10.49 212.02 9.74L212.02 9.74L212.02 2.10Z"></path></g><!----><g data-v-423bf9ae="" id="04270b9c-dafb-485e-bfaa-012dcb9ac55c" transform="matrix(2.140817833179802,0,0,2.140817833179802,0.17674577481695053,-56.77926244102876)" stroke="none" fill="white"><path d="M75.044 69.02C63.736 69.02 55.66 60.144 48 51.028 40.268 60.224 32.216 69.02 20.956 69.02 9.368 69.02-.064 59.596-.064 48s9.428-21.02 21.02-21.02c11.384 0 19.432 8.76 27.044 17.816 7.608-9.052 15.66-17.816 27.044-17.816 11.588 0 21.02 9.424 21.02 21.02s-9.432 21.02-21.02 21.02zM50.608 47.912C58.176 56.94 65.36 65.02 75.04 65.02c9.388 0 17.02-7.636 17.02-17.02s-7.632-17.02-17.02-17.02c-9.784 0-17.276 8.4-24.432 16.932zM20.96 30.98c-9.384 0-17.02 7.636-17.02 17.02s7.636 17.02 17.02 17.02c9.728 0 16.94-8.16 24.436-17.108C38.24 39.38 30.752 30.98 20.96 30.98z"></path></g><!----></svg>